<svg width="93" height="43" viewBox="0 0 93 43" fill="none" xmlns="http://www.w3.org/2000/svg">
<path d="M6.752 32.448C5.6 32.448 4.56533 32.1493 3.648 31.552C2.752 30.9333 2.03733 30.1013 1.504 29.056C0.992 27.9893 0.736 26.784 0.736 25.44C0.736 24.096 1.04533 22.88 1.664 21.792C2.28267 20.6827 3.12533 19.808 4.192 19.168C5.25867 18.5067 6.432 18.176 7.712 18.176C8.62933 18.176 9.45067 18.3787 10.176 18.784C10.9013 19.168 11.4773 19.6907 11.904 20.352C12.352 21.0133 12.576 21.76 12.576 22.592C12.576 23.4027 12.2453 23.808 11.584 23.808H5.184C4.88533 23.808 4.66133 23.8933 4.512 24.064C4.384 24.2347 4.32 24.5227 4.32 24.928C4.32 25.7387 4.50133 26.4853 4.864 27.168C5.22667 27.8293 5.71733 28.352 6.336 28.736C6.95467 29.12 7.66933 29.312 8.48 29.312C9.09867 29.312 9.664 29.1947 10.176 28.96C10.7093 28.7253 11.232 28.4053 11.744 28C11.8293 27.936 11.904 27.8827 11.968 27.84C12.0533 27.776 12.128 27.744 12.192 27.744C12.4053 27.744 12.512 27.8827 12.512 28.16C12.512 28.3947 12.4267 28.7147 12.256 29.12C12.0427 29.6533 11.68 30.1867 11.168 30.72C10.6773 31.232 10.0587 31.648 9.312 31.968C8.56533 32.288 7.712 32.448 6.752 32.448ZM5.184 22.464H7.104C7.70133 22.464 8.11733 22.4533 8.352 22.432C8.58667 22.4107 8.8 22.368 8.992 22.304C9.09867 22.2613 9.184 22.1547 9.248 21.984C9.312 21.8133 9.344 21.6213 9.344 21.408C9.344 20.832 9.14133 20.3627 8.736 20C8.352 19.6373 7.872 19.456 7.296 19.456C6.848 19.456 6.42133 19.584 6.016 19.84C5.632 20.0747 5.312 20.3947 5.056 20.8C4.82133 21.184 4.71467 21.5893 4.736 22.016C4.736 22.3147 4.88533 22.464 5.184 22.464ZM20.0333 32.448C18.9026 32.448 17.8786 32.1493 16.9613 31.552C16.0653 30.9333 15.3506 30.112 14.8173 29.088C14.3053 28.0427 14.0493 26.8693 14.0493 25.568C14.0493 24.1813 14.3693 22.9333 15.0093 21.824C15.6493 20.7147 16.5026 19.8293 17.5693 19.168C18.6573 18.5067 19.8626 18.176 21.1853 18.176C22.9346 18.176 24.3853 18.752 25.5373 19.904C25.7293 20.1173 25.8253 20.3093 25.8253 20.48C25.8253 20.608 25.7293 20.8 25.5373 21.056C25.3453 21.2907 25.1319 21.504 24.8973 21.696C24.6626 21.888 24.4599 21.984 24.2893 21.984C24.0973 21.984 23.9053 21.9307 23.7133 21.824C23.5426 21.696 23.3719 21.5573 23.2013 21.408C22.6466 20.9387 22.0813 20.5653 21.5052 20.288C20.9506 19.9893 20.4706 19.84 20.0653 19.84C19.2546 19.84 18.6359 20.1813 18.2093 20.864C17.8039 21.5253 17.6013 22.6133 17.6013 24.128C17.6013 25.1733 17.7613 26.08 18.0813 26.848C18.4226 27.5947 18.9026 28.1707 19.5213 28.576C20.1399 28.9813 20.8866 29.184 21.7613 29.184C22.4013 29.184 22.9559 29.088 23.4253 28.896C23.8946 28.6827 24.3853 28.3627 24.8973 27.936C25.0039 27.872 25.0893 27.808 25.1533 27.744C25.2386 27.68 25.3346 27.648 25.4413 27.648C25.6973 27.648 25.8253 27.8187 25.8253 28.16C25.8253 28.2453 25.8039 28.3733 25.7613 28.544C25.7399 28.6933 25.6759 28.864 25.5693 29.056C25.3773 29.4827 25.0039 29.9627 24.4493 30.496C23.9159 31.0293 23.2759 31.488 22.5293 31.872C21.7826 32.256 20.9506 32.448 20.0333 32.448ZM27.3715 32.096C26.9448 32.096 26.7315 31.9467 26.7315 31.648C26.7315 31.3707 26.9768 31.1573 27.4675 31.008C27.7875 30.9013 28.0648 30.784 28.2995 30.656C28.5342 30.528 28.6622 30.2293 28.6835 29.76V14.4C28.6835 13.824 28.6088 13.3227 28.4595 12.896C28.3102 12.4693 27.9688 12.2027 27.4355 12.096C27.2008 12.0533 27.0835 11.8933 27.0835 11.616C27.0835 11.3387 27.1902 11.1787 27.4035 11.136C27.8942 11.0293 28.4488 10.88 29.0675 10.688C29.7075 10.4747 30.3262 10.2613 30.9235 10.048C31.5208 9.81333 31.9795 9.64267 32.2995 9.536C32.4702 9.472 32.6088 9.44 32.7155 9.44C32.8435 9.44 32.9288 9.48267 32.9715 9.568C33.0142 9.632 33.0355 9.71733 33.0355 9.824C33.0355 9.93067 33.0142 10.0907 32.9715 10.304C32.9502 10.496 32.9288 10.7413 32.9075 11.04C32.8862 11.3173 32.8648 11.648 32.8435 12.032V19.424C32.8435 19.6373 32.8542 19.8293 32.8755 20C32.8968 20.1707 32.9502 20.288 33.0355 20.352C33.3555 20.0747 33.7395 19.776 34.1875 19.456C34.6355 19.1147 35.1475 18.816 35.7235 18.56C36.3208 18.304 36.9822 18.176 37.7075 18.176C38.8382 18.176 39.7875 18.5813 40.5555 19.392C41.3235 20.1813 41.7075 21.2907 41.7075 22.72V29.696C41.7075 30.144 41.8248 30.4533 42.0595 30.624C42.2942 30.7733 42.5608 30.9013 42.8595 31.008C43.0942 31.072 43.2648 31.1573 43.3715 31.264C43.4995 31.3493 43.5635 31.4773 43.5635 31.648C43.5635 31.9467 43.3288 32.096 42.8595 32.096C42.3475 32.096 41.9315 32.0747 41.6115 32.032C41.2915 32.0107 40.9822 31.9893 40.6835 31.968C40.4062 31.9467 40.0435 31.936 39.5955 31.936C39.1262 31.936 38.7635 31.9467 38.5075 31.968C38.2515 31.9893 37.9848 32.0107 37.7075 32.032C37.4302 32.0747 37.0355 32.096 36.5235 32.096C35.9902 32.096 35.7235 31.936 35.7235 31.616C35.7235 31.4453 35.7875 31.3173 35.9155 31.232C36.0648 31.1253 36.2248 31.0507 36.3955 31.008C36.6728 30.9013 36.9288 30.7627 37.1635 30.592C37.3982 30.4213 37.5155 30.1013 37.5155 29.632V23.328C37.5155 22.8587 37.4195 22.4427 37.2275 22.08C37.0355 21.696 36.7795 21.3973 36.4595 21.184C36.1608 20.9493 35.8302 20.832 35.4675 20.832C35.1475 20.832 34.7955 20.8853 34.4115 20.992C34.0275 21.0987 33.6542 21.28 33.2915 21.536C33.1208 21.664 33.0035 21.8133 32.9395 21.984C32.8968 22.1333 32.8755 22.368 32.8755 22.688V29.696C32.8755 30.1227 32.9822 30.4213 33.1955 30.592C33.4088 30.7413 33.6542 30.8693 33.9315 30.976C34.1235 31.04 34.2835 31.1253 34.4115 31.232C34.5395 31.3173 34.6035 31.4453 34.6035 31.616C34.6035 31.936 34.4115 32.096 34.0275 32.096C33.6008 32.096 33.1955 32.0747 32.8115 32.032C32.4488 32.0107 32.0968 31.9893 31.7555 31.968C31.4355 31.9467 31.0835 31.936 30.6995 31.936C30.3368 31.936 29.9742 31.9467 29.6115 31.968C29.2702 31.9893 28.9182 32.0107 28.5555 32.032C28.1928 32.0747 27.7982 32.096 27.3715 32.096Z" fill="black"/>
<circle cx="84.9053" cy="25.691" r="8.09468" fill="black" fill-opacity="0.2"/>
<circle cx="77" cy="25.5952" r="8.09468" fill="#999999"/>
<circle cx="69" cy="25.5952" r="8.09468" fill="#666666"/>
<circle cx="61" cy="25.5952" r="8.09468" fill="#333333"/>
<circle cx="53.0947" cy="25.4994" r="8.09468" fill="black"/>
</svg>
